<?xml version="1.0" standalone="no"?>
<!DOCTYPE svg PUBLIC "-//W3C//DTD SVG 20010904//EN"
 "http://www.w3.org/TR/2001/REC-SVG-20010904/DTD/svg10.dtd">
<svg version="1.0" xmlns="http://www.w3.org/2000/svg"
 width="512.000000pt" height="512.000000pt" viewBox="0 0 512.000000 512.000000"
 preserveAspectRatio="xMidYMid meet">

<g transform="translate(0.000000,512.000000) scale(0.100000,-0.100000)"
fill="#000000" stroke="none">
<path d="M1310 4853 c-217 -23 -469 -122 -663 -260 -107 -77 -267 -237 -344
-346 -159 -226 -262 -504 -294 -799 -21 -190 4 -481 58 -678 l18 -65 387 -3
388 -2 152 302 c168 333 175 341 263 341 93 0 83 15 376 -568 l267 -530 257
515 c141 283 269 527 283 543 52 55 151 56 203 1 13 -14 89 -154 169 -312
l145 -287 552 -5 c535 -5 552 -6 579 -25 43 -32 66 -83 61 -134 -6 -55 -32
-90 -87 -118 l-44 -23 -581 0 c-349 0 -594 4 -614 10 -19 5 -46 21 -60 34 -14
14 -69 111 -121 216 -52 104 -97 190 -100 190 -3 0 -120 -230 -260 -511 -269
-538 -283 -561 -354 -574 -39 -8 -93 7 -128 35 -13 10 -133 238 -283 539
l-260 521 -102 -204 c-89 -177 -108 -208 -141 -228 -37 -23 -38 -23 -435 -26
l-398 -3 68 -132 c360 -700 1101 -1378 2139 -1955 147 -82 161 -82 308 0 906
503 1581 1079 1986 1694 461 700 545 1436 233 2046 -75 148 -160 264 -278 383
-263 261 -580 406 -930 422 -405 19 -786 -156 -1095 -504 l-72 -81 -48 56
c-129 156 -324 313 -489 397 -205 103 -481 153 -711 128z"/>
</g>
</svg>
